<svg width="237" height="64" viewBox="0 0 237 64" fill="none" xmlns="http://www.w3.org/2000/svg">
<path d="M95.355 29.211V39H87.633V29.094L77.22 11.7H85.371L91.845 22.542L98.319 11.7H105.807L95.355 29.211ZM123.958 33.696H112.414L110.269 39H102.391L114.442 11.7H122.047L134.137 39H126.103L123.958 33.696ZM121.696 28.002L118.186 19.266L114.676 28.002H121.696ZM167.878 24.765C169.438 25.311 170.66 26.169 171.544 27.339C172.428 28.483 172.87 29.874 172.87 31.512C172.87 33.904 171.908 35.75 169.984 37.05C168.06 38.35 165.278 39 161.638 39H146.896V11.7H160.858C164.342 11.7 166.994 12.35 168.814 13.65C170.634 14.924 171.544 16.653 171.544 18.837C171.544 20.137 171.219 21.307 170.569 22.347C169.945 23.361 169.048 24.167 167.878 24.765ZM154.54 17.277V22.542H159.844C162.444 22.542 163.744 21.658 163.744 19.89C163.744 18.148 162.444 17.277 159.844 17.277H154.54ZM161.014 33.423C163.718 33.423 165.07 32.5 165.07 30.654C165.07 28.808 163.718 27.885 161.014 27.885H154.54V33.423H161.014ZM194.771 33.696H183.227L181.082 39H173.204L185.255 11.7H192.86L204.95 39H196.916L194.771 33.696ZM192.509 28.002L188.999 19.266L185.489 28.002H192.509ZM220.135 39.546C217.249 39.546 214.649 38.935 212.335 37.713C210.047 36.491 208.24 34.801 206.914 32.643C205.614 30.485 204.964 28.054 204.964 25.35C204.964 22.646 205.614 20.215 206.914 18.057C208.24 15.899 210.047 14.209 212.335 12.987C214.649 11.765 217.249 11.154 220.135 11.154C223.021 11.154 225.608 11.765 227.896 12.987C230.21 14.209 232.017 15.899 233.317 18.057C234.643 20.215 235.306 22.646 235.306 25.35C235.306 28.054 234.643 30.485 233.317 32.643C232.017 34.801 230.21 36.491 227.896 37.713C225.608 38.935 223.021 39.546 220.135 39.546ZM220.135 33.15C221.513 33.15 222.761 32.825 223.879 32.175C224.997 31.525 225.881 30.615 226.531 29.445C227.181 28.249 227.506 26.884 227.506 25.35C227.506 23.816 227.181 22.464 226.531 21.294C225.881 20.098 224.997 19.175 223.879 18.525C222.761 17.875 221.513 17.55 220.135 17.55C218.757 17.55 217.509 17.875 216.391 18.525C215.273 19.175 214.389 20.098 213.739 21.294C213.089 22.464 212.764 23.816 212.764 25.35C212.764 26.884 213.089 28.249 213.739 29.445C214.389 30.615 215.273 31.525 216.391 32.175C217.509 32.825 218.757 33.15 220.135 33.15Z" fill="#231F20"/>
<path d="M110.366 53.977V56.3857H109.25V55H104.256V56.3857H103.13L103.14 53.977H103.419C103.828 53.9584 104.113 53.6577 104.274 53.0749C104.442 52.4859 104.544 51.6458 104.581 50.5546L104.655 48.49H109.426V53.977H110.366ZM105.641 50.6662C105.61 51.5094 105.542 52.2131 105.437 52.7773C105.331 53.3353 105.164 53.7352 104.934 53.977H108.236V49.513H105.688L105.641 50.6662ZM116.954 48.49L114.127 53.7445C113.879 54.2095 113.581 54.5598 113.234 54.7954C112.893 55.0248 112.521 55.1395 112.118 55.1395C111.795 55.1395 111.476 55.0713 111.16 54.9349L111.457 53.9863C111.712 54.0669 111.922 54.1072 112.09 54.1072C112.48 54.1072 112.803 53.9057 113.057 53.5027L113.159 53.3446L110.565 48.49H111.857L113.782 52.3123L115.763 48.49H116.954ZM118.308 48.49L119.843 50.6662L121.377 48.49H122.791L120.606 51.6148L122.968 55H121.536L119.843 52.6285L118.16 55H116.765L119.118 51.6613L116.913 48.49H118.308ZM128.685 52.2565H127.476V55H126.286V48.49H127.476V51.2149H128.722L130.591 48.49H131.875L129.652 51.6427L131.959 55H130.591L128.685 52.2565ZM132.649 48.49H133.839V53.1121L137.336 48.49H138.461V55H137.271V50.3872L133.774 55H132.649V48.49ZM144.872 49.513H142.714V55H141.514V49.513H139.366V48.49H144.872V49.513ZM149.763 53.4934H146.508L145.866 55H144.62L147.55 48.49H148.74L151.679 55H150.414L149.763 53.4934ZM149.363 52.5448L148.136 49.699L146.917 52.5448H149.363ZM152.547 48.49H153.737V53.1121L157.234 48.49H158.359V55H157.169V50.3872L153.672 55H152.547V48.49ZM155.439 48.0529C154.881 48.0529 154.46 47.9382 154.174 47.7088C153.895 47.4794 153.753 47.1446 153.747 46.7044H154.593C154.599 46.9338 154.674 47.1105 154.816 47.2345C154.959 47.3585 155.166 47.4205 155.439 47.4205C155.706 47.4205 155.914 47.3585 156.062 47.2345C156.217 47.1105 156.298 46.9338 156.304 46.7044H157.141C157.135 47.1384 156.986 47.4732 156.695 47.7088C156.41 47.9382 155.991 48.0529 155.439 48.0529ZM163.04 55.093C162.383 55.093 161.787 54.9504 161.254 54.6652C160.727 54.3738 160.312 53.9739 160.008 53.4655C159.71 52.9571 159.562 52.3836 159.562 51.745C159.562 51.1064 159.714 50.5329 160.017 50.0245C160.321 49.5161 160.737 49.1193 161.264 48.8341C161.797 48.5427 162.392 48.397 163.049 48.397C163.582 48.397 164.069 48.49 164.509 48.676C164.949 48.862 165.321 49.1317 165.625 49.4851L164.844 50.2198C164.373 49.7114 163.793 49.4572 163.105 49.4572C162.659 49.4572 162.259 49.5564 161.905 49.7548C161.552 49.947 161.276 50.2167 161.078 50.5639C160.879 50.9111 160.78 51.3048 160.78 51.745C160.78 52.1852 160.879 52.5789 161.078 52.9261C161.276 53.2733 161.552 53.5461 161.905 53.7445C162.259 53.9367 162.659 54.0328 163.105 54.0328C163.793 54.0328 164.373 53.7755 164.844 53.2609L165.625 54.0049C165.321 54.3583 164.946 54.628 164.5 54.814C164.06 55 163.573 55.093 163.04 55.093ZM169.008 52.2565H167.799V55H166.608V48.49H167.799V51.2149H169.045L170.914 48.49H172.198L169.975 51.6427L172.281 55H170.914L169.008 52.2565ZM175.957 55.093C175.294 55.093 174.696 54.9504 174.163 54.6652C173.629 54.3738 173.211 53.9739 172.907 53.4655C172.603 52.9509 172.451 52.3774 172.451 51.745C172.451 51.1126 172.603 50.5422 172.907 50.0338C173.211 49.5192 173.629 49.1193 174.163 48.8341C174.696 48.5427 175.294 48.397 175.957 48.397C176.621 48.397 177.219 48.5427 177.752 48.8341C178.286 49.1193 178.704 49.5161 179.008 50.0245C179.312 50.5329 179.464 51.1064 179.464 51.745C179.464 52.3836 179.312 52.9571 179.008 53.4655C178.704 53.9739 178.286 54.3738 177.752 54.6652C177.219 54.9504 176.621 55.093 175.957 55.093ZM175.957 54.0328C176.391 54.0328 176.782 53.9367 177.129 53.7445C177.476 53.5461 177.749 53.2733 177.948 52.9261C178.146 52.5727 178.245 52.179 178.245 51.745C178.245 51.311 178.146 50.9204 177.948 50.5732C177.749 50.2198 177.476 49.947 177.129 49.7548C176.782 49.5564 176.391 49.4572 175.957 49.4572C175.523 49.4572 175.133 49.5564 174.786 49.7548C174.438 49.947 174.166 50.2198 173.967 50.5732C173.769 50.9204 173.67 51.311 173.67 51.745C173.67 52.179 173.769 52.5727 173.967 52.9261C174.166 53.2733 174.438 53.5461 174.786 53.7445C175.133 53.9367 175.523 54.0328 175.957 54.0328ZM180.67 48.49H181.86V53.1121L185.357 48.49H186.483V55H185.292V50.3872L181.795 55H180.67V48.49ZM183.562 48.0529C183.004 48.0529 182.583 47.9382 182.298 47.7088C182.019 47.4794 181.876 47.1446 181.87 46.7044H182.716C182.722 46.9338 182.797 47.1105 182.939 47.2345C183.082 47.3585 183.29 47.4205 183.562 47.4205C183.829 47.4205 184.037 47.3585 184.185 47.2345C184.34 47.1105 184.421 46.9338 184.427 46.7044H185.264C185.258 47.1384 185.109 47.4732 184.818 47.7088C184.533 47.9382 184.114 48.0529 183.562 48.0529ZM195.482 53.9863V55H190.599V48.49H195.351V49.5037H191.808V51.1963H194.951V52.1914H191.808V53.9863H195.482ZM203.144 53.977V56.3857H202.028V55H197.034V56.3857H195.909L195.918 53.977H196.197C196.606 53.9584 196.891 53.6577 197.052 53.0749C197.22 52.4859 197.322 51.6458 197.359 50.5546L197.434 48.49H202.205V53.977H203.144ZM198.42 50.6662C198.389 51.5094 198.32 52.2131 198.215 52.7773C198.11 53.3353 197.942 53.7352 197.713 53.977H201.014V49.513H198.466L198.42 50.6662ZM207.147 50.6941C207.928 50.6941 208.526 50.8708 208.942 51.2242C209.363 51.5714 209.574 52.0891 209.574 52.7773C209.574 53.4965 209.345 54.0483 208.886 54.4327C208.427 54.8109 207.782 55 206.951 55H204.152V48.49H205.343V50.6941H207.147ZM206.896 54.07C207.367 54.07 207.73 53.9615 207.984 53.7445C208.238 53.5275 208.365 53.2113 208.365 52.7959C208.365 52.0085 207.875 51.6148 206.896 51.6148H205.343V54.07H206.896ZM210.513 48.49H211.704V55H210.513V48.49Z" fill="#231F20"/>
<rect x="6.48633" y="6.4856" width="51.0286" height="51.0286" rx="2" stroke="#FF2E65" stroke-width="2"/>
<rect x="1.5" y="1.5" width="61" height="61" rx="6.5" stroke="#FF2E65" stroke-width="3"/>
<rect x="14.6289" y="39.188" width="34.5417" height="3.16632" rx="1" fill="#FF2E65"/>
<rect x="33.8789" y="33.999" width="17.0492" height="3.16632" rx="1" transform="rotate(-45 33.8789 33.999)" fill="#FF2E65"/>
<rect x="27.8379" y="36.3022" width="17.0505" height="3.16632" rx="1" transform="rotate(-135 27.8379 36.3022)" fill="#FF2E65"/>
</svg>
